<svg width="170" height="166" viewBox="0 0 170 166" fill="none" xmlns="http://www.w3.org/2000/svg">
<path d="M85.0007 0C38.0623 0 0 38.0516 0 84.9927C0 122.545 24.3553 154.404 58.1287 165.642C62.3767 166.429 63.9363 163.798 63.9363 161.553C63.9363 159.527 63.8575 152.831 63.8209 145.73C40.1736 150.871 35.1838 135.701 35.1838 135.701C31.3172 125.878 25.746 123.265 25.746 123.265C18.0339 117.99 26.3273 118.099 26.3273 118.099C34.8628 118.698 39.3572 126.857 39.3572 126.857C46.9384 139.851 59.2421 136.094 64.0926 133.922C64.8555 128.429 67.0583 124.68 69.4892 122.557C50.6094 120.408 30.7626 113.12 30.7626 80.5536C30.7626 71.2744 34.083 63.6925 39.5205 57.7404C38.638 55.5997 35.7285 46.9551 40.3439 35.248C40.3439 35.248 47.4818 32.9637 63.7252 43.9601C70.5055 42.0769 77.777 41.1325 85.0007 41.1002C92.2244 41.1325 99.5016 42.0769 106.295 43.9601C122.518 32.9637 129.646 35.248 129.646 35.248C134.273 46.9551 131.362 55.5997 130.479 57.7404C135.93 63.6925 139.228 71.2744 139.228 80.5536C139.228 113.198 119.343 120.386 100.415 122.49C103.464 125.127 106.18 130.3 106.18 138.229C106.18 149.601 106.082 158.754 106.082 161.553C106.082 163.815 107.612 166.465 111.921 165.631C145.676 154.38 170 122.532 170 84.9927C170 38.0516 131.943 0 85.0007 0ZM31.8355 121.074C31.6483 121.496 30.9839 121.623 30.3787 121.333C29.7622 121.056 29.4159 120.48 29.6158 120.056C29.7988 119.621 30.4645 119.5 31.0797 119.792C31.6976 120.069 32.0495 120.65 31.8355 121.074ZM36.0166 124.804C35.6112 125.18 34.8188 125.006 34.2811 124.412C33.7251 123.819 33.6209 123.027 34.0319 122.645C34.45 122.269 35.2185 122.445 35.7759 123.038C36.3319 123.638 36.4403 124.424 36.0166 124.804ZM38.885 129.577C38.3642 129.939 37.5126 129.6 36.9862 128.844C36.4654 128.088 36.4654 127.182 36.9974 126.819C37.5253 126.455 38.3642 126.782 38.8977 127.532C39.4171 128.301 39.4171 129.207 38.885 129.577ZM43.7361 135.105C43.2702 135.619 42.2778 135.481 41.5515 134.78C40.8083 134.094 40.6014 133.122 41.0687 132.608C41.5402 132.093 42.5382 132.238 43.2702 132.933C44.0077 133.617 44.2329 134.597 43.7361 135.105ZM50.0056 136.971C49.8001 137.637 48.8443 137.939 47.8815 137.656C46.9202 137.365 46.291 136.585 46.4852 135.913C46.6851 135.243 47.6451 134.927 48.6149 135.23C49.5749 135.52 50.2055 136.294 50.0056 136.971ZM57.1405 137.762C57.1645 138.463 56.3481 139.045 55.3374 139.057C54.3212 139.08 53.4992 138.513 53.4879 137.823C53.4879 137.115 54.286 136.539 55.3023 136.523C56.3129 136.503 57.1405 137.066 57.1405 137.762ZM64.1499 137.494C64.2709 138.178 63.5685 138.88 62.5649 139.067C61.5782 139.248 60.6647 138.825 60.5394 138.147C60.417 137.446 61.132 136.744 62.1173 136.562C63.1223 136.388 64.0218 136.799 64.1499 137.494Z" fill="white"/>
</svg>
